<?xml version="1.0" standalone="no"?>
<!DOCTYPE svg PUBLIC "-//W3C//DTD SVG 20010904//EN"
 "http://www.w3.org/TR/2001/REC-SVG-20010904/DTD/svg10.dtd">
<svg version="1.0" xmlns="http://www.w3.org/2000/svg"
 width="470.000000pt" height="470.000000pt" viewBox="0 0 470.000000 470.000000"
 preserveAspectRatio="xMidYMid meet">
<metadata>
Created by potrace 1.11, written by Peter Selinger 2001-2013
</metadata>
<g transform="translate(0.000000,470.000000) scale(0.100000,-0.100000)"
fill="#000000" stroke="none">
<path d="M2230 4294 c-913 -59 -1690 -632 -2005 -1478 -183 -494 -185 -1072
-5 -1566 77 -214 232 -484 379 -663 102 -126 96 -126 110 10 39 366 194 691
456 958 55 56 121 120 147 141 l47 39 -14 65 c-56 272 -1 549 155 775 103 148
237 262 401 340 159 74 235 90 434 89 155 -1 178 -3 260 -28 183 -55 316 -134
445 -265 228 -230 332 -561 276 -879 l-12 -72 35 -27 c140 -104 297 -272 398
-425 144 -219 225 -448 255 -724 13 -121 8 -121 109 3 147 179 302 449 379
663 180 494 178 1072 -5 1566 -115 308 -289 578 -525 814 -354 355 -802 578
-1295 645 -107 14 -335 25 -425 19z"/>
<path d="M2126 1975 c-335 -46 -642 -201 -892 -450 -186 -186 -305 -378 -389
-627 -41 -122 -75 -310 -75 -410 l0 -70 58 53 c326 298 745 495 1207 566 151
23 479 23 630 0 462 -71 881 -268 1208 -566 l57 -53 0 70 c0 39 -9 123 -20
187 -90 529 -454 986 -947 1191 -262 109 -554 147 -837 109z"/>
</g>
</svg>
